<svg width="136" height="136" viewBox="0 0 136 136" fill="none" xmlns="http://www.w3.org/2000/svg">
<g clip-path="url(#clip0_1_2)">
<path d="M64.6065 133.027L2.92405 70.2632C1.37561 68.6876 1.39762 66.155 2.9732 64.6065L65.7368 2.92407C67.3124 1.3756 69.845 1.39763 71.3935 2.97321L133.076 65.7368C134.624 67.3124 134.602 69.845 133.027 71.3935L70.2632 133.076C68.6876 134.624 66.155 134.602 64.6065 133.027Z" fill="url(#paint0_radial_1_2)" fill-opacity="0.04"/>
<g clip-path="url(#clip1_1_2)">
<path d="M65.4862 114.906L3.80374 52.1429C2.2553 50.5673 2.2773 48.0347 3.85288 46.4862L66.6165 -15.1962C68.1921 -16.7447 70.7247 -16.7227 72.2732 -15.1471L133.956 47.6165C135.504 49.1921 135.482 51.7247 133.906 53.2732L71.1429 114.956C69.5673 116.504 67.0347 116.482 65.4862 114.906Z" fill="url(#paint1_radial_1_2)" fill-opacity="0.04"/>
</g>
</g>
<defs>
<radialGradient id="paint0_radial_1_2" cx="0" cy="0" r="1" gradientUnits="userSpaceOnUse" gradientTransform="translate(67.4103 135.88) rotate(-89.5022) scale(84.8528)">
<stop stop-color="white"/>
<stop offset="1" stop-color="white" stop-opacity="0"/>
</radialGradient>
<radialGradient id="paint1_radial_1_2" cx="0" cy="0" r="1" gradientUnits="userSpaceOnUse" gradientTransform="translate(68.29 117.759) rotate(-89.5022) scale(84.8528)">
<stop stop-color="white"/>
<stop offset="1" stop-color="white" stop-opacity="0"/>
</radialGradient>
<clipPath id="clip0_1_2">
<rect width="96" height="96" fill="white" transform="translate(135.88 68.5897) rotate(135.498)"/>
</clipPath>
<clipPath id="clip1_1_2">
<rect width="96" height="96" fill="white" transform="translate(136.759 50.4694) rotate(135.498)"/>
</clipPath>
</defs>
</svg>
